M48
; DRILL file {KiCad (6.0.5)} date Sun Jun 12 15:20:49 2022
; FORMAT={-:-/ absolute / inch / decimal}
; #@! TF.CreationDate,2022-06-12T15:20:49+02:00
; #@! TF.GenerationSoftware,Kicad,Pcbnew,(6.0.5)
; #@! TF.FileFunction,Plated,1,2,PTH
FMAT,2
INCH
; #@! TA.AperFunction,Plated,PTH,ViaDrill
T1C0.0236
; #@! TA.AperFunction,Plated,PTH,ComponentDrill
T2C0.0295
; #@! TA.AperFunction,Plated,PTH,ComponentDrill
T3C0.0315
; #@! TA.AperFunction,Plated,PTH,ComponentDrill
T4C0.0394
%
G90
G05
T1
X1.635Y3.195
X1.735Y2.845
X2.485Y1.645
X2.585Y1.545
X2.885Y0.945
X3.645Y2.385
X3.715Y2.4217
X3.765Y2.465
X3.805Y2.525
X4.535Y3.045
X4.575Y3.025
X4.6112Y3.0013
X4.675Y2.525
X4.715Y2.465
X4.739Y2.429
X4.785Y2.385
T2
X3.135Y0.85
X3.185Y0.85
X3.235Y0.85
X3.585Y0.8466
X3.635Y0.8466
X3.685Y0.8466
X4.0258Y0.845
X4.0758Y0.845
X4.1258Y0.845
X4.4311Y0.84
X4.4811Y0.84
X4.5311Y0.84
X4.835Y0.845
X4.885Y0.845
X4.935Y0.845
T3
X0.625Y3.925
X0.625Y3.735
X0.625Y3.615
X0.625Y3.495
X0.625Y3.375
X0.625Y3.255
X0.625Y3.135
X0.625Y3.015
X0.625Y2.895
X0.6322Y2.4951
X0.6322Y2.3751
X0.6322Y2.2551
X0.6322Y2.1351
X0.6322Y2.0151
X0.6322Y1.8951
X0.6322Y1.7751
X0.6322Y1.6551
X1.025Y3.925
X1.025Y3.735
X1.025Y3.615
X1.025Y3.495
X1.025Y3.375
X1.025Y3.255
X1.025Y3.135
X1.025Y3.015
X1.025Y2.895
X1.0322Y2.4951
X1.0322Y2.3751
X1.0322Y2.2551
X1.0322Y2.1351
X1.0322Y2.0151
X1.0322Y1.8951
X1.0322Y1.7751
X1.0322Y1.6551
X1.1354Y3.6454
X1.1354Y3.5454
X1.1354Y3.4454
X1.1354Y3.3454
X1.1354Y3.2454
X1.1354Y3.1454
X1.1354Y3.0454
X1.1354Y2.9454
X1.1467Y2.3949
X1.1467Y2.2949
X1.1467Y2.1949
X1.1467Y2.0949
X1.1467Y1.9949
X1.1467Y1.8949
X1.1467Y1.7949
X1.1467Y1.6949
X1.4354Y3.6454
X1.4354Y3.5454
X1.4354Y3.4454
X1.4354Y3.3454
X1.4354Y3.2454
X1.4354Y3.1454
X1.4354Y3.0454
X1.4354Y2.9454
X1.4467Y2.3949
X1.4467Y2.2949
X1.4467Y2.1949
X1.4467Y2.0949
X1.4467Y1.9949
X1.4467Y1.8949
X1.4467Y1.7949
X1.4467Y1.6949
X1.575Y3.485
X1.575Y3.085
X1.5863Y2.2345
X1.5863Y1.8345
X1.7206Y1.2801
X1.7206Y1.1601
X1.7206Y1.0401
X1.7206Y0.9201
X1.7206Y0.8001
X1.7206Y0.6801
X1.7206Y0.5601
X1.7206Y0.4401
X2.1206Y1.2801
X2.1206Y1.1601
X2.1206Y1.0401
X2.1206Y0.9201
X2.1206Y0.8001
X2.1206Y0.6801
X2.1206Y0.5601
X2.1206Y0.4401
X2.235Y1.175
X2.235Y1.075
X2.235Y0.975
X2.235Y0.875
X2.235Y0.775
X2.235Y0.675
X2.235Y0.575
X2.235Y0.475
X2.535Y1.175
X2.535Y1.075
X2.535Y0.975
X2.535Y0.875
X2.535Y0.775
X2.535Y0.675
X2.535Y0.575
X2.535Y0.475
X2.6946Y1.0146
X2.6946Y0.6146
X3.185Y1.5
X3.185Y1.1
X3.635Y1.4966
X3.635Y1.0966
X4.0758Y1.495
X4.0758Y1.095
X4.4811Y1.49
X4.4811Y1.09
X4.885Y1.495
X4.885Y1.095
T4
X0.315Y5.1
X0.315Y3.9
X0.315Y2.7
X0.315Y1.5
X0.315Y0.3
X1.515Y5.1
X1.515Y3.9
X1.515Y2.7
X1.515Y1.5
X1.515Y0.3
X2.2767Y3.3659
X2.2767Y3.2659
X2.3767Y3.3659
X2.3767Y3.2659
X2.4767Y3.3659
X2.4767Y3.2659
X2.5767Y3.3659
X2.5767Y3.2659
X2.6767Y3.3659
X2.6767Y3.2659
X2.715Y5.1
X2.715Y3.9
X2.715Y2.7
X2.715Y1.5
X2.715Y0.3
X2.7767Y3.3659
X2.7767Y3.2659
X2.7992Y2.915
X2.8767Y3.3659
X2.8767Y3.2659
X2.8992Y2.915
X2.9767Y3.3659
X2.9767Y3.2659
X2.9992Y2.915
X3.0767Y3.3659
X3.0767Y3.2659
X3.0992Y2.915
X3.1767Y3.3659
X3.1767Y3.2659
X3.1992Y2.915
X3.235Y0.45
X3.2767Y3.3659
X3.2767Y3.2659
X3.2992Y2.915
X3.3767Y3.3659
X3.3767Y3.2659
X3.3992Y2.915
X3.4767Y3.3659
X3.4767Y3.2659
X3.4992Y2.915
X3.5767Y3.3659
X3.5767Y3.2659
X3.5992Y2.915
X3.6767Y3.3659
X3.6767Y3.2659
X3.685Y0.4466
X3.6992Y2.915
X3.7767Y3.3659
X3.7767Y3.2659
X3.7992Y2.915
X3.8767Y3.3659
X3.8767Y3.2659
X3.8992Y2.915
X3.915Y5.1
X3.915Y3.9
X3.915Y2.7
X3.915Y1.5
X3.915Y0.3
X3.9767Y3.3659
X3.9767Y3.2659
X4.0767Y3.3659
X4.0767Y3.2659
X4.1258Y0.445
X4.1767Y3.3659
X4.1767Y3.2659
X4.5311Y0.44
X4.935Y0.445
X5.115Y5.1
X5.115Y3.9
X5.115Y2.7
X5.115Y1.5
X5.115Y0.3
T0
M30
