%TF.GenerationSoftware,KiCad,Pcbnew,(6.0.5)*%
%TF.CreationDate,2022-06-12T15:20:55+02:00*%
%TF.ProjectId,3d cube,33642063-7562-4652-9e6b-696361645f70,rev?*%
%TF.SameCoordinates,PX849f6a8PYc7b8a98*%
%TF.FileFunction,Soldermask,Bot*%
%TF.FilePolarity,Negative*%
%FSLAX46Y46*%
G04 Gerber Fmt 4.6, Leading zero omitted, Abs format (unit mm)*
G04 Created by KiCad (PCBNEW (6.0.5)) date 2022-06-12 15:20:55*
%MOMM*%
%LPD*%
G01*
G04 APERTURE LIST*
%ADD10R,1.700000X1.700000*%
%ADD11O,1.700000X1.700000*%
%ADD12C,1.600000*%
%ADD13O,1.600000X1.600000*%
%ADD14R,1.050000X1.500000*%
%ADD15O,1.050000X1.500000*%
%ADD16R,1.600000X1.600000*%
%ADD17C,2.700000*%
G04 APERTURE END LIST*
D10*
%TO.C,P1*%
X57829000Y85493000D03*
D11*
X57829000Y82953000D03*
X60369000Y85493000D03*
X60369000Y82953000D03*
X62909000Y85493000D03*
X62909000Y82953000D03*
X65449000Y85493000D03*
X65449000Y82953000D03*
X67989000Y85493000D03*
X67989000Y82953000D03*
X70529000Y85493000D03*
X70529000Y82953000D03*
X73069000Y85493000D03*
X73069000Y82953000D03*
X75609000Y85493000D03*
X75609000Y82953000D03*
X78149000Y85493000D03*
X78149000Y82953000D03*
X80689000Y85493000D03*
X80689000Y82953000D03*
X83229000Y85493000D03*
X83229000Y82953000D03*
X85769000Y85493000D03*
X85769000Y82953000D03*
X88309000Y85493000D03*
X88309000Y82953000D03*
X90849000Y85493000D03*
X90849000Y82953000D03*
X93389000Y85493000D03*
X93389000Y82953000D03*
X95929000Y85493000D03*
X95929000Y82953000D03*
X98469000Y85493000D03*
X98469000Y82953000D03*
X101009000Y85493000D03*
X101009000Y82953000D03*
X103549000Y85493000D03*
X103549000Y82953000D03*
X106089000Y85493000D03*
X106089000Y82953000D03*
%TD*%
D12*
%TO.C,RC2*%
X40005000Y78359000D03*
D13*
X40005000Y88519000D03*
%TD*%
D10*
%TO.C,J6*%
X99040000Y74041000D03*
D11*
X96500000Y74041000D03*
X93960000Y74041000D03*
X91420000Y74041000D03*
X88880000Y74041000D03*
X86340000Y74041000D03*
X83800000Y74041000D03*
X81260000Y74041000D03*
X78720000Y74041000D03*
X76180000Y74041000D03*
X73640000Y74041000D03*
X71100000Y74041000D03*
%TD*%
D14*
%TO.C,Q4*%
X91059000Y21503879D03*
D15*
X92329000Y21503879D03*
X93599000Y21503879D03*
%TD*%
D12*
%TO.C,R14*%
X16059120Y48134500D03*
D13*
X26219120Y48134500D03*
%TD*%
D12*
%TO.C,R17*%
X15875000Y94869000D03*
D13*
X26035000Y94869000D03*
%TD*%
D12*
%TO.C,R22*%
X15875000Y79629000D03*
D13*
X26035000Y79629000D03*
%TD*%
D12*
%TO.C,R13*%
X16059120Y51182500D03*
D13*
X26219120Y51182500D03*
%TD*%
D14*
%TO.C,Q5*%
X79629000Y21590000D03*
D15*
X80899000Y21590000D03*
X82169000Y21590000D03*
%TD*%
D12*
%TO.C,R4*%
X43703000Y23371000D03*
D13*
X53863000Y23371000D03*
%TD*%
D12*
%TO.C,R12*%
X16059120Y54230500D03*
D13*
X26219120Y54230500D03*
%TD*%
D12*
%TO.C,R9*%
X16059120Y63374500D03*
D13*
X26219120Y63374500D03*
%TD*%
D14*
%TO.C,Q2*%
X112549000Y21336000D03*
D15*
X113819000Y21336000D03*
X115089000Y21336000D03*
%TD*%
D12*
%TO.C,R15*%
X16059120Y45086500D03*
D13*
X26219120Y45086500D03*
%TD*%
D12*
%TO.C,R19*%
X15875000Y88773000D03*
D13*
X26035000Y88773000D03*
%TD*%
D12*
%TO.C,RC3*%
X40291120Y46597500D03*
D13*
X40291120Y56757500D03*
%TD*%
D12*
%TO.C,RL5*%
X80899000Y27940000D03*
D13*
X80899000Y38100000D03*
%TD*%
D12*
%TO.C,RL2*%
X113819000Y27686000D03*
D13*
X113819000Y37846000D03*
%TD*%
D12*
%TO.C,R1*%
X43703000Y32515000D03*
D13*
X53863000Y32515000D03*
%TD*%
D12*
%TO.C,R8*%
X43703000Y11179000D03*
D13*
X53863000Y11179000D03*
%TD*%
D12*
%TO.C,R23*%
X15875000Y76581000D03*
D13*
X26035000Y76581000D03*
%TD*%
D12*
%TO.C,R11*%
X16059120Y57278500D03*
D13*
X26219120Y57278500D03*
%TD*%
D12*
%TO.C,R3*%
X43703000Y26419000D03*
D13*
X53863000Y26419000D03*
%TD*%
D16*
%TO.C,U1*%
X56769000Y29845000D03*
D13*
X56769000Y27305000D03*
X56769000Y24765000D03*
X56769000Y22225000D03*
X56769000Y19685000D03*
X56769000Y17145000D03*
X56769000Y14605000D03*
X56769000Y12065000D03*
X64389000Y12065000D03*
X64389000Y14605000D03*
X64389000Y17145000D03*
X64389000Y19685000D03*
X64389000Y22225000D03*
X64389000Y24765000D03*
X64389000Y27305000D03*
X64389000Y29845000D03*
%TD*%
D12*
%TO.C,R25*%
X15875000Y99695000D03*
D13*
X26035000Y99695000D03*
%TD*%
D12*
%TO.C,R16*%
X16059120Y42038500D03*
D13*
X26219120Y42038500D03*
%TD*%
D12*
%TO.C,R5*%
X43703000Y20323000D03*
D13*
X53863000Y20323000D03*
%TD*%
D12*
%TO.C,R7*%
X43703000Y14227000D03*
D13*
X53863000Y14227000D03*
%TD*%
D16*
%TO.C,U3*%
X28839000Y92593000D03*
D13*
X28839000Y90053000D03*
X28839000Y87513000D03*
X28839000Y84973000D03*
X28839000Y82433000D03*
X28839000Y79893000D03*
X28839000Y77353000D03*
X28839000Y74813000D03*
X36459000Y74813000D03*
X36459000Y77353000D03*
X36459000Y79893000D03*
X36459000Y82433000D03*
X36459000Y84973000D03*
X36459000Y87513000D03*
X36459000Y90053000D03*
X36459000Y92593000D03*
%TD*%
D14*
%TO.C,Q1*%
X122809000Y21463000D03*
D15*
X124079000Y21463000D03*
X125349000Y21463000D03*
%TD*%
D12*
%TO.C,R2*%
X43703000Y29467000D03*
D13*
X53863000Y29467000D03*
%TD*%
D16*
%TO.C,U2*%
X29125120Y60831500D03*
D13*
X29125120Y58291500D03*
X29125120Y55751500D03*
X29125120Y53211500D03*
X29125120Y50671500D03*
X29125120Y48131500D03*
X29125120Y45591500D03*
X29125120Y43051500D03*
X36745120Y43051500D03*
X36745120Y45591500D03*
X36745120Y48131500D03*
X36745120Y50671500D03*
X36745120Y53211500D03*
X36745120Y55751500D03*
X36745120Y58291500D03*
X36745120Y60831500D03*
%TD*%
D12*
%TO.C,R18*%
X15875000Y91821000D03*
D13*
X26035000Y91821000D03*
%TD*%
D12*
%TO.C,RL3*%
X103525945Y27813000D03*
D13*
X103525945Y37973000D03*
%TD*%
D12*
%TO.C,RC1*%
X68443000Y15611000D03*
D13*
X68443000Y25771000D03*
%TD*%
D12*
%TO.C,RL4*%
X92329000Y27853879D03*
D13*
X92329000Y38013879D03*
%TD*%
D12*
%TO.C,R20*%
X15875000Y85725000D03*
D13*
X26035000Y85725000D03*
%TD*%
D14*
%TO.C,Q3*%
X102255945Y21463000D03*
D15*
X103525945Y21463000D03*
X104795945Y21463000D03*
%TD*%
D12*
%TO.C,R10*%
X16059120Y60326500D03*
D13*
X26219120Y60326500D03*
%TD*%
D12*
%TO.C,R6*%
X43703000Y17275000D03*
D13*
X53863000Y17275000D03*
%TD*%
D12*
%TO.C,R24*%
X15875000Y73533000D03*
D13*
X26035000Y73533000D03*
%TD*%
D12*
%TO.C,R21*%
X15875000Y82677000D03*
D13*
X26035000Y82677000D03*
%TD*%
D12*
%TO.C,RL1*%
X124079000Y27813000D03*
D13*
X124079000Y37973000D03*
%TD*%
D17*
%TO.C,MK1*%
X52959000Y84223000D03*
%TD*%
%TO.C,MK2*%
X110959000Y84223000D03*
%TD*%
%TO.C,MK3*%
X52959000Y133223000D03*
%TD*%
%TO.C,MK4*%
X110959000Y133223000D03*
%TD*%
D10*
%TO.C,D14*%
X38481000Y68580000D03*
%TD*%
%TO.C,D13*%
X68961000Y68580000D03*
%TD*%
D17*
%TO.C,REF\u002A\u002A*%
X133731000Y3302000D03*
%TD*%
D10*
%TO.C,D6*%
X129921000Y38100000D03*
%TD*%
%TO.C,J1*%
X125349000Y11303000D03*
%TD*%
%TO.C,D25*%
X8001000Y129540000D03*
%TD*%
%TO.C,D7*%
X99441000Y38100000D03*
%TD*%
%TO.C,D15*%
X8001000Y68580000D03*
%TD*%
%TO.C,J4*%
X93599000Y11343879D03*
%TD*%
%TO.C,D23*%
X68961000Y129540000D03*
%TD*%
%TO.C,D21*%
X129921000Y129540000D03*
%TD*%
%TO.C,D24*%
X38481000Y129540000D03*
%TD*%
%TO.C,D19*%
X38481000Y99060000D03*
%TD*%
%TO.C,D8*%
X68961000Y38100000D03*
%TD*%
%TO.C,D16*%
X129921000Y99060000D03*
%TD*%
%TO.C,D1*%
X129921000Y7620000D03*
%TD*%
D17*
%TO.C,REF\u002A\u002A*%
X3683000Y133350000D03*
%TD*%
D10*
%TO.C,D4*%
X38481000Y7620000D03*
%TD*%
%TO.C,D18*%
X68961000Y99060000D03*
%TD*%
%TO.C,D11*%
X129921000Y68580000D03*
%TD*%
%TO.C,D22*%
X99441000Y129540000D03*
%TD*%
%TO.C,D5*%
X8001000Y7620000D03*
%TD*%
%TO.C,D17*%
X99441000Y99060000D03*
%TD*%
%TO.C,D12*%
X99441000Y68580000D03*
%TD*%
%TO.C,D2*%
X99441000Y7620000D03*
%TD*%
%TO.C,J5*%
X82169000Y11430000D03*
%TD*%
%TO.C,J3*%
X104795945Y11303000D03*
%TD*%
%TO.C,D9*%
X38481000Y38100000D03*
%TD*%
%TO.C,J2*%
X115089000Y11176000D03*
%TD*%
%TO.C,D10*%
X8001000Y38100000D03*
%TD*%
%TO.C,D20*%
X8001000Y99060000D03*
%TD*%
D17*
%TO.C,REF\u002A\u002A*%
X3810000Y3683000D03*
%TD*%
D10*
%TO.C,D3*%
X68961000Y7620000D03*
%TD*%
M02*
