%TF.GenerationSoftware,KiCad,Pcbnew,(6.0.5)*%
%TF.CreationDate,2022-06-12T15:20:55+02:00*%
%TF.ProjectId,3d cube,33642063-7562-4652-9e6b-696361645f70,rev?*%
%TF.SameCoordinates,PX849f6a8PYc7b8a98*%
%TF.FileFunction,Legend,Bot*%
%TF.FilePolarity,Positive*%
%FSLAX46Y46*%
G04 Gerber Fmt 4.6, Leading zero omitted, Abs format (unit mm)*
G04 Created by KiCad (PCBNEW (6.0.5)) date 2022-06-12 15:20:55*
%MOMM*%
%LPD*%
G01*
G04 APERTURE LIST*
%ADD10C,0.150000*%
%ADD11C,0.120000*%
G04 APERTURE END LIST*
D10*
X107324297Y115839191D02*
X102371916Y115839191D01*
X105514773Y112029667D01*
X104371916Y112029667D01*
X103669535Y111553477D01*
X103348107Y111077286D01*
X103086202Y110124905D01*
X103383821Y107743953D01*
X103883821Y106791572D01*
X104324297Y106315381D01*
X105145726Y105839191D01*
X107431440Y105839191D01*
X108133821Y106315381D01*
X108455250Y106791572D01*
X100193345Y105839191D02*
X98943345Y115839191D01*
X97038583Y115839191D01*
X95955250Y115363000D01*
X95312392Y114410620D01*
X95050488Y113458239D01*
X94907630Y111553477D01*
X95086202Y110124905D01*
X95705250Y108220143D01*
X96205250Y107267762D01*
X97086202Y106315381D01*
X98288583Y105839191D01*
X100193345Y105839191D01*
X82288583Y105839191D02*
X86098107Y105839191D01*
X84848107Y115839191D01*
X78967154Y111077286D02*
X76300488Y111077286D01*
X75812392Y105839191D02*
X79621916Y105839191D01*
X78371916Y115839191D01*
X74562392Y115839191D01*
X72383821Y105839191D02*
X71133821Y115839191D01*
X69229059Y115839191D01*
X68145726Y115363000D01*
X67502869Y114410620D01*
X67240964Y113458239D01*
X67098107Y111553477D01*
X67276678Y110124905D01*
X67895726Y108220143D01*
X68395726Y107267762D01*
X69276678Y106315381D01*
X70479059Y105839191D01*
X72383821Y105839191D01*
X53598107Y106791572D02*
X54038583Y106315381D01*
X55240964Y105839191D01*
X56002869Y105839191D01*
X57086202Y106315381D01*
X57729059Y107267762D01*
X57990964Y108220143D01*
X58133821Y110124905D01*
X57955250Y111553477D01*
X57336202Y113458239D01*
X56836202Y114410620D01*
X55955250Y115363000D01*
X54752869Y115839191D01*
X53990964Y115839191D01*
X52907630Y115363000D01*
X52586202Y114886810D01*
X49038583Y115839191D02*
X50050488Y107743953D01*
X49788583Y106791572D01*
X49467154Y106315381D01*
X48764773Y105839191D01*
X47240964Y105839191D01*
X46419535Y106315381D01*
X45979059Y106791572D01*
X45479059Y107743953D01*
X44467154Y115839191D01*
X38586202Y111077286D02*
X37502869Y110601096D01*
X37181440Y110124905D01*
X36919535Y109172524D01*
X37098107Y107743953D01*
X37598107Y106791572D01*
X38038583Y106315381D01*
X38860011Y105839191D01*
X41907630Y105839191D01*
X40657630Y115839191D01*
X37990964Y115839191D01*
X37288583Y115363000D01*
X36967154Y114886810D01*
X36705250Y113934429D01*
X36824297Y112982048D01*
X37324297Y112029667D01*
X37764773Y111553477D01*
X38586202Y111077286D01*
X41252869Y111077286D01*
X33252869Y111077286D02*
X30586202Y111077286D01*
X30098107Y105839191D02*
X33907630Y105839191D01*
X32657630Y115839191D01*
X28848107Y115839191D01*
%TO.C,MK1*%
X54268523Y87470620D02*
X54268523Y88470620D01*
X53935190Y87756334D01*
X53601857Y88470620D01*
X53601857Y87470620D01*
X53125666Y87470620D02*
X53125666Y88470620D01*
X52554238Y87470620D02*
X52982809Y88042048D01*
X52554238Y88470620D02*
X53125666Y87899191D01*
X51601857Y87470620D02*
X52173285Y87470620D01*
X51887571Y87470620D02*
X51887571Y88470620D01*
X51982809Y88327762D01*
X52078047Y88232524D01*
X52173285Y88184905D01*
%TO.C,MK2*%
X112268523Y87470620D02*
X112268523Y88470620D01*
X111935190Y87756334D01*
X111601857Y88470620D01*
X111601857Y87470620D01*
X111125666Y87470620D02*
X111125666Y88470620D01*
X110554238Y87470620D02*
X110982809Y88042048D01*
X110554238Y88470620D02*
X111125666Y87899191D01*
X110173285Y88375381D02*
X110125666Y88423000D01*
X110030428Y88470620D01*
X109792333Y88470620D01*
X109697095Y88423000D01*
X109649476Y88375381D01*
X109601857Y88280143D01*
X109601857Y88184905D01*
X109649476Y88042048D01*
X110220904Y87470620D01*
X109601857Y87470620D01*
%TO.C,MK3*%
X54268523Y129070620D02*
X54268523Y130070620D01*
X53935190Y129356334D01*
X53601857Y130070620D01*
X53601857Y129070620D01*
X53125666Y129070620D02*
X53125666Y130070620D01*
X52554238Y129070620D02*
X52982809Y129642048D01*
X52554238Y130070620D02*
X53125666Y129499191D01*
X52220904Y130070620D02*
X51601857Y130070620D01*
X51935190Y129689667D01*
X51792333Y129689667D01*
X51697095Y129642048D01*
X51649476Y129594429D01*
X51601857Y129499191D01*
X51601857Y129261096D01*
X51649476Y129165858D01*
X51697095Y129118239D01*
X51792333Y129070620D01*
X52078047Y129070620D01*
X52173285Y129118239D01*
X52220904Y129165858D01*
%TO.C,MK4*%
X112268523Y129070620D02*
X112268523Y130070620D01*
X111935190Y129356334D01*
X111601857Y130070620D01*
X111601857Y129070620D01*
X111125666Y129070620D02*
X111125666Y130070620D01*
X110554238Y129070620D02*
X110982809Y129642048D01*
X110554238Y130070620D02*
X111125666Y129499191D01*
X109697095Y129737286D02*
X109697095Y129070620D01*
X109935190Y130118239D02*
X110173285Y129403953D01*
X109554238Y129403953D01*
%TO.C,D14*%
X39695285Y70897620D02*
X39695285Y71897620D01*
X39457190Y71897620D01*
X39314333Y71850000D01*
X39219095Y71754762D01*
X39171476Y71659524D01*
X39123857Y71469048D01*
X39123857Y71326191D01*
X39171476Y71135715D01*
X39219095Y71040477D01*
X39314333Y70945239D01*
X39457190Y70897620D01*
X39695285Y70897620D01*
X38171476Y70897620D02*
X38742904Y70897620D01*
X38457190Y70897620D02*
X38457190Y71897620D01*
X38552428Y71754762D01*
X38647666Y71659524D01*
X38742904Y71611905D01*
X37314333Y71564286D02*
X37314333Y70897620D01*
X37552428Y71945239D02*
X37790523Y71230953D01*
X37171476Y71230953D01*
%TO.C,D13*%
X70175285Y70897620D02*
X70175285Y71897620D01*
X69937190Y71897620D01*
X69794333Y71850000D01*
X69699095Y71754762D01*
X69651476Y71659524D01*
X69603857Y71469048D01*
X69603857Y71326191D01*
X69651476Y71135715D01*
X69699095Y71040477D01*
X69794333Y70945239D01*
X69937190Y70897620D01*
X70175285Y70897620D01*
X68651476Y70897620D02*
X69222904Y70897620D01*
X68937190Y70897620D02*
X68937190Y71897620D01*
X69032428Y71754762D01*
X69127666Y71659524D01*
X69222904Y71611905D01*
X68318142Y71897620D02*
X67699095Y71897620D01*
X68032428Y71516667D01*
X67889571Y71516667D01*
X67794333Y71469048D01*
X67746714Y71421429D01*
X67699095Y71326191D01*
X67699095Y71088096D01*
X67746714Y70992858D01*
X67794333Y70945239D01*
X67889571Y70897620D01*
X68175285Y70897620D01*
X68270523Y70945239D01*
X68318142Y70992858D01*
%TO.C,D6*%
X130659095Y40417620D02*
X130659095Y41417620D01*
X130421000Y41417620D01*
X130278142Y41370000D01*
X130182904Y41274762D01*
X130135285Y41179524D01*
X130087666Y40989048D01*
X130087666Y40846191D01*
X130135285Y40655715D01*
X130182904Y40560477D01*
X130278142Y40465239D01*
X130421000Y40417620D01*
X130659095Y40417620D01*
X129230523Y41417620D02*
X129421000Y41417620D01*
X129516238Y41370000D01*
X129563857Y41322381D01*
X129659095Y41179524D01*
X129706714Y40989048D01*
X129706714Y40608096D01*
X129659095Y40512858D01*
X129611476Y40465239D01*
X129516238Y40417620D01*
X129325761Y40417620D01*
X129230523Y40465239D01*
X129182904Y40512858D01*
X129135285Y40608096D01*
X129135285Y40846191D01*
X129182904Y40941429D01*
X129230523Y40989048D01*
X129325761Y41036667D01*
X129516238Y41036667D01*
X129611476Y40989048D01*
X129659095Y40941429D01*
X129706714Y40846191D01*
%TO.C,J1*%
X125682333Y14620620D02*
X125682333Y13906334D01*
X125729952Y13763477D01*
X125825190Y13668239D01*
X125968047Y13620620D01*
X126063285Y13620620D01*
X124682333Y13620620D02*
X125253761Y13620620D01*
X124968047Y13620620D02*
X124968047Y14620620D01*
X125063285Y14477762D01*
X125158523Y14382524D01*
X125253761Y14334905D01*
%TO.C,D25*%
X9215285Y131857620D02*
X9215285Y132857620D01*
X8977190Y132857620D01*
X8834333Y132810000D01*
X8739095Y132714762D01*
X8691476Y132619524D01*
X8643857Y132429048D01*
X8643857Y132286191D01*
X8691476Y132095715D01*
X8739095Y132000477D01*
X8834333Y131905239D01*
X8977190Y131857620D01*
X9215285Y131857620D01*
X8262904Y132762381D02*
X8215285Y132810000D01*
X8120047Y132857620D01*
X7881952Y132857620D01*
X7786714Y132810000D01*
X7739095Y132762381D01*
X7691476Y132667143D01*
X7691476Y132571905D01*
X7739095Y132429048D01*
X8310523Y131857620D01*
X7691476Y131857620D01*
X6786714Y132857620D02*
X7262904Y132857620D01*
X7310523Y132381429D01*
X7262904Y132429048D01*
X7167666Y132476667D01*
X6929571Y132476667D01*
X6834333Y132429048D01*
X6786714Y132381429D01*
X6739095Y132286191D01*
X6739095Y132048096D01*
X6786714Y131952858D01*
X6834333Y131905239D01*
X6929571Y131857620D01*
X7167666Y131857620D01*
X7262904Y131905239D01*
X7310523Y131952858D01*
%TO.C,D7*%
X100179095Y40417620D02*
X100179095Y41417620D01*
X99941000Y41417620D01*
X99798142Y41370000D01*
X99702904Y41274762D01*
X99655285Y41179524D01*
X99607666Y40989048D01*
X99607666Y40846191D01*
X99655285Y40655715D01*
X99702904Y40560477D01*
X99798142Y40465239D01*
X99941000Y40417620D01*
X100179095Y40417620D01*
X99274333Y41417620D02*
X98607666Y41417620D01*
X99036238Y40417620D01*
%TO.C,D15*%
X9215285Y70897620D02*
X9215285Y71897620D01*
X8977190Y71897620D01*
X8834333Y71850000D01*
X8739095Y71754762D01*
X8691476Y71659524D01*
X8643857Y71469048D01*
X8643857Y71326191D01*
X8691476Y71135715D01*
X8739095Y71040477D01*
X8834333Y70945239D01*
X8977190Y70897620D01*
X9215285Y70897620D01*
X7691476Y70897620D02*
X8262904Y70897620D01*
X7977190Y70897620D02*
X7977190Y71897620D01*
X8072428Y71754762D01*
X8167666Y71659524D01*
X8262904Y71611905D01*
X6786714Y71897620D02*
X7262904Y71897620D01*
X7310523Y71421429D01*
X7262904Y71469048D01*
X7167666Y71516667D01*
X6929571Y71516667D01*
X6834333Y71469048D01*
X6786714Y71421429D01*
X6739095Y71326191D01*
X6739095Y71088096D01*
X6786714Y70992858D01*
X6834333Y70945239D01*
X6929571Y70897620D01*
X7167666Y70897620D01*
X7262904Y70945239D01*
X7310523Y70992858D01*
%TO.C,J4*%
X93932333Y14661499D02*
X93932333Y13947213D01*
X93979952Y13804356D01*
X94075190Y13709118D01*
X94218047Y13661499D01*
X94313285Y13661499D01*
X93027571Y14328165D02*
X93027571Y13661499D01*
X93265666Y14709118D02*
X93503761Y13994832D01*
X92884714Y13994832D01*
%TO.C,D23*%
X70175285Y131857620D02*
X70175285Y132857620D01*
X69937190Y132857620D01*
X69794333Y132810000D01*
X69699095Y132714762D01*
X69651476Y132619524D01*
X69603857Y132429048D01*
X69603857Y132286191D01*
X69651476Y132095715D01*
X69699095Y132000477D01*
X69794333Y131905239D01*
X69937190Y131857620D01*
X70175285Y131857620D01*
X69222904Y132762381D02*
X69175285Y132810000D01*
X69080047Y132857620D01*
X68841952Y132857620D01*
X68746714Y132810000D01*
X68699095Y132762381D01*
X68651476Y132667143D01*
X68651476Y132571905D01*
X68699095Y132429048D01*
X69270523Y131857620D01*
X68651476Y131857620D01*
X68318142Y132857620D02*
X67699095Y132857620D01*
X68032428Y132476667D01*
X67889571Y132476667D01*
X67794333Y132429048D01*
X67746714Y132381429D01*
X67699095Y132286191D01*
X67699095Y132048096D01*
X67746714Y131952858D01*
X67794333Y131905239D01*
X67889571Y131857620D01*
X68175285Y131857620D01*
X68270523Y131905239D01*
X68318142Y131952858D01*
%TO.C,D21*%
X131135285Y131857620D02*
X131135285Y132857620D01*
X130897190Y132857620D01*
X130754333Y132810000D01*
X130659095Y132714762D01*
X130611476Y132619524D01*
X130563857Y132429048D01*
X130563857Y132286191D01*
X130611476Y132095715D01*
X130659095Y132000477D01*
X130754333Y131905239D01*
X130897190Y131857620D01*
X131135285Y131857620D01*
X130182904Y132762381D02*
X130135285Y132810000D01*
X130040047Y132857620D01*
X129801952Y132857620D01*
X129706714Y132810000D01*
X129659095Y132762381D01*
X129611476Y132667143D01*
X129611476Y132571905D01*
X129659095Y132429048D01*
X130230523Y131857620D01*
X129611476Y131857620D01*
X128659095Y131857620D02*
X129230523Y131857620D01*
X128944809Y131857620D02*
X128944809Y132857620D01*
X129040047Y132714762D01*
X129135285Y132619524D01*
X129230523Y132571905D01*
%TO.C,D24*%
X39695285Y131857620D02*
X39695285Y132857620D01*
X39457190Y132857620D01*
X39314333Y132810000D01*
X39219095Y132714762D01*
X39171476Y132619524D01*
X39123857Y132429048D01*
X39123857Y132286191D01*
X39171476Y132095715D01*
X39219095Y132000477D01*
X39314333Y131905239D01*
X39457190Y131857620D01*
X39695285Y131857620D01*
X38742904Y132762381D02*
X38695285Y132810000D01*
X38600047Y132857620D01*
X38361952Y132857620D01*
X38266714Y132810000D01*
X38219095Y132762381D01*
X38171476Y132667143D01*
X38171476Y132571905D01*
X38219095Y132429048D01*
X38790523Y131857620D01*
X38171476Y131857620D01*
X37314333Y132524286D02*
X37314333Y131857620D01*
X37552428Y132905239D02*
X37790523Y132190953D01*
X37171476Y132190953D01*
%TO.C,D19*%
X39695285Y101377620D02*
X39695285Y102377620D01*
X39457190Y102377620D01*
X39314333Y102330000D01*
X39219095Y102234762D01*
X39171476Y102139524D01*
X39123857Y101949048D01*
X39123857Y101806191D01*
X39171476Y101615715D01*
X39219095Y101520477D01*
X39314333Y101425239D01*
X39457190Y101377620D01*
X39695285Y101377620D01*
X38171476Y101377620D02*
X38742904Y101377620D01*
X38457190Y101377620D02*
X38457190Y102377620D01*
X38552428Y102234762D01*
X38647666Y102139524D01*
X38742904Y102091905D01*
X37695285Y101377620D02*
X37504809Y101377620D01*
X37409571Y101425239D01*
X37361952Y101472858D01*
X37266714Y101615715D01*
X37219095Y101806191D01*
X37219095Y102187143D01*
X37266714Y102282381D01*
X37314333Y102330000D01*
X37409571Y102377620D01*
X37600047Y102377620D01*
X37695285Y102330000D01*
X37742904Y102282381D01*
X37790523Y102187143D01*
X37790523Y101949048D01*
X37742904Y101853810D01*
X37695285Y101806191D01*
X37600047Y101758572D01*
X37409571Y101758572D01*
X37314333Y101806191D01*
X37266714Y101853810D01*
X37219095Y101949048D01*
%TO.C,D8*%
X69699095Y40417620D02*
X69699095Y41417620D01*
X69461000Y41417620D01*
X69318142Y41370000D01*
X69222904Y41274762D01*
X69175285Y41179524D01*
X69127666Y40989048D01*
X69127666Y40846191D01*
X69175285Y40655715D01*
X69222904Y40560477D01*
X69318142Y40465239D01*
X69461000Y40417620D01*
X69699095Y40417620D01*
X68556238Y40989048D02*
X68651476Y41036667D01*
X68699095Y41084286D01*
X68746714Y41179524D01*
X68746714Y41227143D01*
X68699095Y41322381D01*
X68651476Y41370000D01*
X68556238Y41417620D01*
X68365761Y41417620D01*
X68270523Y41370000D01*
X68222904Y41322381D01*
X68175285Y41227143D01*
X68175285Y41179524D01*
X68222904Y41084286D01*
X68270523Y41036667D01*
X68365761Y40989048D01*
X68556238Y40989048D01*
X68651476Y40941429D01*
X68699095Y40893810D01*
X68746714Y40798572D01*
X68746714Y40608096D01*
X68699095Y40512858D01*
X68651476Y40465239D01*
X68556238Y40417620D01*
X68365761Y40417620D01*
X68270523Y40465239D01*
X68222904Y40512858D01*
X68175285Y40608096D01*
X68175285Y40798572D01*
X68222904Y40893810D01*
X68270523Y40941429D01*
X68365761Y40989048D01*
%TO.C,D16*%
X131135285Y101377620D02*
X131135285Y102377620D01*
X130897190Y102377620D01*
X130754333Y102330000D01*
X130659095Y102234762D01*
X130611476Y102139524D01*
X130563857Y101949048D01*
X130563857Y101806191D01*
X130611476Y101615715D01*
X130659095Y101520477D01*
X130754333Y101425239D01*
X130897190Y101377620D01*
X131135285Y101377620D01*
X129611476Y101377620D02*
X130182904Y101377620D01*
X129897190Y101377620D02*
X129897190Y102377620D01*
X129992428Y102234762D01*
X130087666Y102139524D01*
X130182904Y102091905D01*
X128754333Y102377620D02*
X128944809Y102377620D01*
X129040047Y102330000D01*
X129087666Y102282381D01*
X129182904Y102139524D01*
X129230523Y101949048D01*
X129230523Y101568096D01*
X129182904Y101472858D01*
X129135285Y101425239D01*
X129040047Y101377620D01*
X128849571Y101377620D01*
X128754333Y101425239D01*
X128706714Y101472858D01*
X128659095Y101568096D01*
X128659095Y101806191D01*
X128706714Y101901429D01*
X128754333Y101949048D01*
X128849571Y101996667D01*
X129040047Y101996667D01*
X129135285Y101949048D01*
X129182904Y101901429D01*
X129230523Y101806191D01*
%TO.C,D1*%
X130659095Y9937620D02*
X130659095Y10937620D01*
X130421000Y10937620D01*
X130278142Y10890000D01*
X130182904Y10794762D01*
X130135285Y10699524D01*
X130087666Y10509048D01*
X130087666Y10366191D01*
X130135285Y10175715D01*
X130182904Y10080477D01*
X130278142Y9985239D01*
X130421000Y9937620D01*
X130659095Y9937620D01*
X129135285Y9937620D02*
X129706714Y9937620D01*
X129421000Y9937620D02*
X129421000Y10937620D01*
X129516238Y10794762D01*
X129611476Y10699524D01*
X129706714Y10651905D01*
%TO.C,D4*%
X39219095Y9937620D02*
X39219095Y10937620D01*
X38981000Y10937620D01*
X38838142Y10890000D01*
X38742904Y10794762D01*
X38695285Y10699524D01*
X38647666Y10509048D01*
X38647666Y10366191D01*
X38695285Y10175715D01*
X38742904Y10080477D01*
X38838142Y9985239D01*
X38981000Y9937620D01*
X39219095Y9937620D01*
X37790523Y10604286D02*
X37790523Y9937620D01*
X38028619Y10985239D02*
X38266714Y10270953D01*
X37647666Y10270953D01*
%TO.C,D18*%
X70175285Y101377620D02*
X70175285Y102377620D01*
X69937190Y102377620D01*
X69794333Y102330000D01*
X69699095Y102234762D01*
X69651476Y102139524D01*
X69603857Y101949048D01*
X69603857Y101806191D01*
X69651476Y101615715D01*
X69699095Y101520477D01*
X69794333Y101425239D01*
X69937190Y101377620D01*
X70175285Y101377620D01*
X68651476Y101377620D02*
X69222904Y101377620D01*
X68937190Y101377620D02*
X68937190Y102377620D01*
X69032428Y102234762D01*
X69127666Y102139524D01*
X69222904Y102091905D01*
X68080047Y101949048D02*
X68175285Y101996667D01*
X68222904Y102044286D01*
X68270523Y102139524D01*
X68270523Y102187143D01*
X68222904Y102282381D01*
X68175285Y102330000D01*
X68080047Y102377620D01*
X67889571Y102377620D01*
X67794333Y102330000D01*
X67746714Y102282381D01*
X67699095Y102187143D01*
X67699095Y102139524D01*
X67746714Y102044286D01*
X67794333Y101996667D01*
X67889571Y101949048D01*
X68080047Y101949048D01*
X68175285Y101901429D01*
X68222904Y101853810D01*
X68270523Y101758572D01*
X68270523Y101568096D01*
X68222904Y101472858D01*
X68175285Y101425239D01*
X68080047Y101377620D01*
X67889571Y101377620D01*
X67794333Y101425239D01*
X67746714Y101472858D01*
X67699095Y101568096D01*
X67699095Y101758572D01*
X67746714Y101853810D01*
X67794333Y101901429D01*
X67889571Y101949048D01*
%TO.C,D11*%
X131135285Y70897620D02*
X131135285Y71897620D01*
X130897190Y71897620D01*
X130754333Y71850000D01*
X130659095Y71754762D01*
X130611476Y71659524D01*
X130563857Y71469048D01*
X130563857Y71326191D01*
X130611476Y71135715D01*
X130659095Y71040477D01*
X130754333Y70945239D01*
X130897190Y70897620D01*
X131135285Y70897620D01*
X129611476Y70897620D02*
X130182904Y70897620D01*
X129897190Y70897620D02*
X129897190Y71897620D01*
X129992428Y71754762D01*
X130087666Y71659524D01*
X130182904Y71611905D01*
X128659095Y70897620D02*
X129230523Y70897620D01*
X128944809Y70897620D02*
X128944809Y71897620D01*
X129040047Y71754762D01*
X129135285Y71659524D01*
X129230523Y71611905D01*
%TO.C,D22*%
X100655285Y131857620D02*
X100655285Y132857620D01*
X100417190Y132857620D01*
X100274333Y132810000D01*
X100179095Y132714762D01*
X100131476Y132619524D01*
X100083857Y132429048D01*
X100083857Y132286191D01*
X100131476Y132095715D01*
X100179095Y132000477D01*
X100274333Y131905239D01*
X100417190Y131857620D01*
X100655285Y131857620D01*
X99702904Y132762381D02*
X99655285Y132810000D01*
X99560047Y132857620D01*
X99321952Y132857620D01*
X99226714Y132810000D01*
X99179095Y132762381D01*
X99131476Y132667143D01*
X99131476Y132571905D01*
X99179095Y132429048D01*
X99750523Y131857620D01*
X99131476Y131857620D01*
X98750523Y132762381D02*
X98702904Y132810000D01*
X98607666Y132857620D01*
X98369571Y132857620D01*
X98274333Y132810000D01*
X98226714Y132762381D01*
X98179095Y132667143D01*
X98179095Y132571905D01*
X98226714Y132429048D01*
X98798142Y131857620D01*
X98179095Y131857620D01*
%TO.C,D5*%
X8739095Y9937620D02*
X8739095Y10937620D01*
X8501000Y10937620D01*
X8358142Y10890000D01*
X8262904Y10794762D01*
X8215285Y10699524D01*
X8167666Y10509048D01*
X8167666Y10366191D01*
X8215285Y10175715D01*
X8262904Y10080477D01*
X8358142Y9985239D01*
X8501000Y9937620D01*
X8739095Y9937620D01*
X7262904Y10937620D02*
X7739095Y10937620D01*
X7786714Y10461429D01*
X7739095Y10509048D01*
X7643857Y10556667D01*
X7405761Y10556667D01*
X7310523Y10509048D01*
X7262904Y10461429D01*
X7215285Y10366191D01*
X7215285Y10128096D01*
X7262904Y10032858D01*
X7310523Y9985239D01*
X7405761Y9937620D01*
X7643857Y9937620D01*
X7739095Y9985239D01*
X7786714Y10032858D01*
%TO.C,D17*%
X100655285Y101377620D02*
X100655285Y102377620D01*
X100417190Y102377620D01*
X100274333Y102330000D01*
X100179095Y102234762D01*
X100131476Y102139524D01*
X100083857Y101949048D01*
X100083857Y101806191D01*
X100131476Y101615715D01*
X100179095Y101520477D01*
X100274333Y101425239D01*
X100417190Y101377620D01*
X100655285Y101377620D01*
X99131476Y101377620D02*
X99702904Y101377620D01*
X99417190Y101377620D02*
X99417190Y102377620D01*
X99512428Y102234762D01*
X99607666Y102139524D01*
X99702904Y102091905D01*
X98798142Y102377620D02*
X98131476Y102377620D01*
X98560047Y101377620D01*
%TO.C,D12*%
X100655285Y70897620D02*
X100655285Y71897620D01*
X100417190Y71897620D01*
X100274333Y71850000D01*
X100179095Y71754762D01*
X100131476Y71659524D01*
X100083857Y71469048D01*
X100083857Y71326191D01*
X100131476Y71135715D01*
X100179095Y71040477D01*
X100274333Y70945239D01*
X100417190Y70897620D01*
X100655285Y70897620D01*
X99131476Y70897620D02*
X99702904Y70897620D01*
X99417190Y70897620D02*
X99417190Y71897620D01*
X99512428Y71754762D01*
X99607666Y71659524D01*
X99702904Y71611905D01*
X98750523Y71802381D02*
X98702904Y71850000D01*
X98607666Y71897620D01*
X98369571Y71897620D01*
X98274333Y71850000D01*
X98226714Y71802381D01*
X98179095Y71707143D01*
X98179095Y71611905D01*
X98226714Y71469048D01*
X98798142Y70897620D01*
X98179095Y70897620D01*
%TO.C,D2*%
X100179095Y9937620D02*
X100179095Y10937620D01*
X99941000Y10937620D01*
X99798142Y10890000D01*
X99702904Y10794762D01*
X99655285Y10699524D01*
X99607666Y10509048D01*
X99607666Y10366191D01*
X99655285Y10175715D01*
X99702904Y10080477D01*
X99798142Y9985239D01*
X99941000Y9937620D01*
X100179095Y9937620D01*
X99226714Y10842381D02*
X99179095Y10890000D01*
X99083857Y10937620D01*
X98845761Y10937620D01*
X98750523Y10890000D01*
X98702904Y10842381D01*
X98655285Y10747143D01*
X98655285Y10651905D01*
X98702904Y10509048D01*
X99274333Y9937620D01*
X98655285Y9937620D01*
%TO.C,J5*%
X82502333Y14747620D02*
X82502333Y14033334D01*
X82549952Y13890477D01*
X82645190Y13795239D01*
X82788047Y13747620D01*
X82883285Y13747620D01*
X81549952Y14747620D02*
X82026142Y14747620D01*
X82073761Y14271429D01*
X82026142Y14319048D01*
X81930904Y14366667D01*
X81692809Y14366667D01*
X81597571Y14319048D01*
X81549952Y14271429D01*
X81502333Y14176191D01*
X81502333Y13938096D01*
X81549952Y13842858D01*
X81597571Y13795239D01*
X81692809Y13747620D01*
X81930904Y13747620D01*
X82026142Y13795239D01*
X82073761Y13842858D01*
%TO.C,J3*%
X105129278Y14620620D02*
X105129278Y13906334D01*
X105176897Y13763477D01*
X105272135Y13668239D01*
X105414992Y13620620D01*
X105510230Y13620620D01*
X104748325Y14620620D02*
X104129278Y14620620D01*
X104462611Y14239667D01*
X104319754Y14239667D01*
X104224516Y14192048D01*
X104176897Y14144429D01*
X104129278Y14049191D01*
X104129278Y13811096D01*
X104176897Y13715858D01*
X104224516Y13668239D01*
X104319754Y13620620D01*
X104605468Y13620620D01*
X104700706Y13668239D01*
X104748325Y13715858D01*
%TO.C,D9*%
X39219095Y40417620D02*
X39219095Y41417620D01*
X38981000Y41417620D01*
X38838142Y41370000D01*
X38742904Y41274762D01*
X38695285Y41179524D01*
X38647666Y40989048D01*
X38647666Y40846191D01*
X38695285Y40655715D01*
X38742904Y40560477D01*
X38838142Y40465239D01*
X38981000Y40417620D01*
X39219095Y40417620D01*
X38171476Y40417620D02*
X37981000Y40417620D01*
X37885761Y40465239D01*
X37838142Y40512858D01*
X37742904Y40655715D01*
X37695285Y40846191D01*
X37695285Y41227143D01*
X37742904Y41322381D01*
X37790523Y41370000D01*
X37885761Y41417620D01*
X38076238Y41417620D01*
X38171476Y41370000D01*
X38219095Y41322381D01*
X38266714Y41227143D01*
X38266714Y40989048D01*
X38219095Y40893810D01*
X38171476Y40846191D01*
X38076238Y40798572D01*
X37885761Y40798572D01*
X37790523Y40846191D01*
X37742904Y40893810D01*
X37695285Y40989048D01*
%TO.C,J2*%
X115422333Y14493620D02*
X115422333Y13779334D01*
X115469952Y13636477D01*
X115565190Y13541239D01*
X115708047Y13493620D01*
X115803285Y13493620D01*
X114993761Y14398381D02*
X114946142Y14446000D01*
X114850904Y14493620D01*
X114612809Y14493620D01*
X114517571Y14446000D01*
X114469952Y14398381D01*
X114422333Y14303143D01*
X114422333Y14207905D01*
X114469952Y14065048D01*
X115041380Y13493620D01*
X114422333Y13493620D01*
%TO.C,D10*%
X9215285Y40417620D02*
X9215285Y41417620D01*
X8977190Y41417620D01*
X8834333Y41370000D01*
X8739095Y41274762D01*
X8691476Y41179524D01*
X8643857Y40989048D01*
X8643857Y40846191D01*
X8691476Y40655715D01*
X8739095Y40560477D01*
X8834333Y40465239D01*
X8977190Y40417620D01*
X9215285Y40417620D01*
X7691476Y40417620D02*
X8262904Y40417620D01*
X7977190Y40417620D02*
X7977190Y41417620D01*
X8072428Y41274762D01*
X8167666Y41179524D01*
X8262904Y41131905D01*
X7072428Y41417620D02*
X6977190Y41417620D01*
X6881952Y41370000D01*
X6834333Y41322381D01*
X6786714Y41227143D01*
X6739095Y41036667D01*
X6739095Y40798572D01*
X6786714Y40608096D01*
X6834333Y40512858D01*
X6881952Y40465239D01*
X6977190Y40417620D01*
X7072428Y40417620D01*
X7167666Y40465239D01*
X7215285Y40512858D01*
X7262904Y40608096D01*
X7310523Y40798572D01*
X7310523Y41036667D01*
X7262904Y41227143D01*
X7215285Y41322381D01*
X7167666Y41370000D01*
X7072428Y41417620D01*
%TO.C,D20*%
X9215285Y101377620D02*
X9215285Y102377620D01*
X8977190Y102377620D01*
X8834333Y102330000D01*
X8739095Y102234762D01*
X8691476Y102139524D01*
X8643857Y101949048D01*
X8643857Y101806191D01*
X8691476Y101615715D01*
X8739095Y101520477D01*
X8834333Y101425239D01*
X8977190Y101377620D01*
X9215285Y101377620D01*
X8262904Y102282381D02*
X8215285Y102330000D01*
X8120047Y102377620D01*
X7881952Y102377620D01*
X7786714Y102330000D01*
X7739095Y102282381D01*
X7691476Y102187143D01*
X7691476Y102091905D01*
X7739095Y101949048D01*
X8310523Y101377620D01*
X7691476Y101377620D01*
X7072428Y102377620D02*
X6977190Y102377620D01*
X6881952Y102330000D01*
X6834333Y102282381D01*
X6786714Y102187143D01*
X6739095Y101996667D01*
X6739095Y101758572D01*
X6786714Y101568096D01*
X6834333Y101472858D01*
X6881952Y101425239D01*
X6977190Y101377620D01*
X7072428Y101377620D01*
X7167666Y101425239D01*
X7215285Y101472858D01*
X7262904Y101568096D01*
X7310523Y101758572D01*
X7310523Y101996667D01*
X7262904Y102187143D01*
X7215285Y102282381D01*
X7167666Y102330000D01*
X7072428Y102377620D01*
%TO.C,D3*%
X69699095Y9937620D02*
X69699095Y10937620D01*
X69461000Y10937620D01*
X69318142Y10890000D01*
X69222904Y10794762D01*
X69175285Y10699524D01*
X69127666Y10509048D01*
X69127666Y10366191D01*
X69175285Y10175715D01*
X69222904Y10080477D01*
X69318142Y9985239D01*
X69461000Y9937620D01*
X69699095Y9937620D01*
X68794333Y10937620D02*
X68175285Y10937620D01*
X68508619Y10556667D01*
X68365761Y10556667D01*
X68270523Y10509048D01*
X68222904Y10461429D01*
X68175285Y10366191D01*
X68175285Y10128096D01*
X68222904Y10032858D01*
X68270523Y9985239D01*
X68365761Y9937620D01*
X68651476Y9937620D01*
X68746714Y9985239D01*
X68794333Y10032858D01*
D11*
%TO.C,D14*%
X37151000Y69910000D02*
X37151000Y68580000D01*
X38481000Y69910000D02*
X37151000Y69910000D01*
X39811000Y67250000D02*
X37151000Y67250000D01*
X39811000Y67370000D02*
X39811000Y67250000D01*
X37151000Y67370000D02*
X37151000Y67250000D01*
%TO.C,D13*%
X67631000Y69910000D02*
X67631000Y68580000D01*
X67631000Y67370000D02*
X67631000Y67250000D01*
X68961000Y69910000D02*
X67631000Y69910000D01*
X70291000Y67370000D02*
X70291000Y67250000D01*
X70291000Y67250000D02*
X67631000Y67250000D01*
%TO.C,D6*%
X128591000Y36890000D02*
X128591000Y36770000D01*
X128591000Y39430000D02*
X128591000Y38100000D01*
X129921000Y39430000D02*
X128591000Y39430000D01*
X131251000Y36890000D02*
X131251000Y36770000D01*
X131251000Y36770000D02*
X128591000Y36770000D01*
%TO.C,J1*%
X124019000Y12633000D02*
X124019000Y11303000D01*
X126679000Y10093000D02*
X126679000Y9973000D01*
X126679000Y9973000D02*
X124019000Y9973000D01*
X125349000Y12633000D02*
X124019000Y12633000D01*
X124019000Y10093000D02*
X124019000Y9973000D01*
%TO.C,D25*%
X6671000Y130870000D02*
X6671000Y129540000D01*
X6671000Y128330000D02*
X6671000Y128210000D01*
X9331000Y128330000D02*
X9331000Y128210000D01*
X8001000Y130870000D02*
X6671000Y130870000D01*
X9331000Y128210000D02*
X6671000Y128210000D01*
%TO.C,D7*%
X99441000Y39430000D02*
X98111000Y39430000D01*
X100771000Y36890000D02*
X100771000Y36770000D01*
X98111000Y39430000D02*
X98111000Y38100000D01*
X98111000Y36890000D02*
X98111000Y36770000D01*
X100771000Y36770000D02*
X98111000Y36770000D01*
%TO.C,D15*%
X6671000Y69910000D02*
X6671000Y68580000D01*
X8001000Y69910000D02*
X6671000Y69910000D01*
X6671000Y67370000D02*
X6671000Y67250000D01*
X9331000Y67370000D02*
X9331000Y67250000D01*
X9331000Y67250000D02*
X6671000Y67250000D01*
%TO.C,J4*%
X94929000Y10133879D02*
X94929000Y10013879D01*
X92269000Y10133879D02*
X92269000Y10013879D01*
X93599000Y12673879D02*
X92269000Y12673879D01*
X92269000Y12673879D02*
X92269000Y11343879D01*
X94929000Y10013879D02*
X92269000Y10013879D01*
%TO.C,D23*%
X67631000Y128330000D02*
X67631000Y128210000D01*
X70291000Y128210000D02*
X67631000Y128210000D01*
X67631000Y130870000D02*
X67631000Y129540000D01*
X70291000Y128330000D02*
X70291000Y128210000D01*
X68961000Y130870000D02*
X67631000Y130870000D01*
%TO.C,D21*%
X128591000Y128330000D02*
X128591000Y128210000D01*
X131251000Y128210000D02*
X128591000Y128210000D01*
X128591000Y130870000D02*
X128591000Y129540000D01*
X129921000Y130870000D02*
X128591000Y130870000D01*
X131251000Y128330000D02*
X131251000Y128210000D01*
%TO.C,D24*%
X37151000Y128330000D02*
X37151000Y128210000D01*
X37151000Y130870000D02*
X37151000Y129540000D01*
X39811000Y128330000D02*
X39811000Y128210000D01*
X39811000Y128210000D02*
X37151000Y128210000D01*
X38481000Y130870000D02*
X37151000Y130870000D01*
%TO.C,D19*%
X38481000Y100390000D02*
X37151000Y100390000D01*
X39811000Y97850000D02*
X39811000Y97730000D01*
X39811000Y97730000D02*
X37151000Y97730000D01*
X37151000Y97850000D02*
X37151000Y97730000D01*
X37151000Y100390000D02*
X37151000Y99060000D01*
%TO.C,D8*%
X67631000Y39430000D02*
X67631000Y38100000D01*
X67631000Y36890000D02*
X67631000Y36770000D01*
X68961000Y39430000D02*
X67631000Y39430000D01*
X70291000Y36770000D02*
X67631000Y36770000D01*
X70291000Y36890000D02*
X70291000Y36770000D01*
%TO.C,D16*%
X129921000Y100390000D02*
X128591000Y100390000D01*
X128591000Y97850000D02*
X128591000Y97730000D01*
X128591000Y100390000D02*
X128591000Y99060000D01*
X131251000Y97730000D02*
X128591000Y97730000D01*
X131251000Y97850000D02*
X131251000Y97730000D01*
%TO.C,D1*%
X129921000Y8950000D02*
X128591000Y8950000D01*
X128591000Y6410000D02*
X128591000Y6290000D01*
X128591000Y8950000D02*
X128591000Y7620000D01*
X131251000Y6290000D02*
X128591000Y6290000D01*
X131251000Y6410000D02*
X131251000Y6290000D01*
%TO.C,D4*%
X37151000Y8950000D02*
X37151000Y7620000D01*
X39811000Y6290000D02*
X37151000Y6290000D01*
X38481000Y8950000D02*
X37151000Y8950000D01*
X39811000Y6410000D02*
X39811000Y6290000D01*
X37151000Y6410000D02*
X37151000Y6290000D01*
%TO.C,D18*%
X67631000Y97850000D02*
X67631000Y97730000D01*
X70291000Y97730000D02*
X67631000Y97730000D01*
X70291000Y97850000D02*
X70291000Y97730000D01*
X68961000Y100390000D02*
X67631000Y100390000D01*
X67631000Y100390000D02*
X67631000Y99060000D01*
%TO.C,D11*%
X129921000Y69910000D02*
X128591000Y69910000D01*
X128591000Y69910000D02*
X128591000Y68580000D01*
X131251000Y67250000D02*
X128591000Y67250000D01*
X128591000Y67370000D02*
X128591000Y67250000D01*
X131251000Y67370000D02*
X131251000Y67250000D01*
%TO.C,D22*%
X100771000Y128330000D02*
X100771000Y128210000D01*
X100771000Y128210000D02*
X98111000Y128210000D01*
X99441000Y130870000D02*
X98111000Y130870000D01*
X98111000Y130870000D02*
X98111000Y129540000D01*
X98111000Y128330000D02*
X98111000Y128210000D01*
%TO.C,D5*%
X6671000Y8950000D02*
X6671000Y7620000D01*
X9331000Y6290000D02*
X6671000Y6290000D01*
X9331000Y6410000D02*
X9331000Y6290000D01*
X8001000Y8950000D02*
X6671000Y8950000D01*
X6671000Y6410000D02*
X6671000Y6290000D01*
%TO.C,D17*%
X100771000Y97730000D02*
X98111000Y97730000D01*
X100771000Y97850000D02*
X100771000Y97730000D01*
X99441000Y100390000D02*
X98111000Y100390000D01*
X98111000Y100390000D02*
X98111000Y99060000D01*
X98111000Y97850000D02*
X98111000Y97730000D01*
%TO.C,D12*%
X100771000Y67250000D02*
X98111000Y67250000D01*
X99441000Y69910000D02*
X98111000Y69910000D01*
X100771000Y67370000D02*
X100771000Y67250000D01*
X98111000Y69910000D02*
X98111000Y68580000D01*
X98111000Y67370000D02*
X98111000Y67250000D01*
%TO.C,D2*%
X99441000Y8950000D02*
X98111000Y8950000D01*
X98111000Y6410000D02*
X98111000Y6290000D01*
X100771000Y6290000D02*
X98111000Y6290000D01*
X100771000Y6410000D02*
X100771000Y6290000D01*
X98111000Y8950000D02*
X98111000Y7620000D01*
%TO.C,J5*%
X83499000Y10100000D02*
X80839000Y10100000D01*
X82169000Y12760000D02*
X80839000Y12760000D01*
X80839000Y10220000D02*
X80839000Y10100000D01*
X83499000Y10220000D02*
X83499000Y10100000D01*
X80839000Y12760000D02*
X80839000Y11430000D01*
%TO.C,J3*%
X106125945Y10093000D02*
X106125945Y9973000D01*
X103465945Y10093000D02*
X103465945Y9973000D01*
X106125945Y9973000D02*
X103465945Y9973000D01*
X104795945Y12633000D02*
X103465945Y12633000D01*
X103465945Y12633000D02*
X103465945Y11303000D01*
%TO.C,D9*%
X39811000Y36890000D02*
X39811000Y36770000D01*
X37151000Y36890000D02*
X37151000Y36770000D01*
X38481000Y39430000D02*
X37151000Y39430000D01*
X37151000Y39430000D02*
X37151000Y38100000D01*
X39811000Y36770000D02*
X37151000Y36770000D01*
%TO.C,J2*%
X115089000Y12506000D02*
X113759000Y12506000D01*
X116419000Y9966000D02*
X116419000Y9846000D01*
X113759000Y12506000D02*
X113759000Y11176000D01*
X116419000Y9846000D02*
X113759000Y9846000D01*
X113759000Y9966000D02*
X113759000Y9846000D01*
%TO.C,D10*%
X6671000Y39430000D02*
X6671000Y38100000D01*
X9331000Y36890000D02*
X9331000Y36770000D01*
X9331000Y36770000D02*
X6671000Y36770000D01*
X6671000Y36890000D02*
X6671000Y36770000D01*
X8001000Y39430000D02*
X6671000Y39430000D01*
%TO.C,D20*%
X8001000Y100390000D02*
X6671000Y100390000D01*
X9331000Y97730000D02*
X6671000Y97730000D01*
X6671000Y97850000D02*
X6671000Y97730000D01*
X6671000Y100390000D02*
X6671000Y99060000D01*
X9331000Y97850000D02*
X9331000Y97730000D01*
%TO.C,D3*%
X67631000Y6410000D02*
X67631000Y6290000D01*
X70291000Y6290000D02*
X67631000Y6290000D01*
X68961000Y8950000D02*
X67631000Y8950000D01*
X70291000Y6410000D02*
X70291000Y6290000D01*
X67631000Y8950000D02*
X67631000Y7620000D01*
%TD*%
M02*
